<?xml version="1.0" standalone="no"?><!DOCTYPE svg PUBLIC "-//W3C//DTD SVG 1.1//EN" "http://www.w3.org/Graphics/SVG/1.1/DTD/svg11.dtd"><svg t="1752473001077" class="icon" viewBox="0 0 1027 1024" version="1.1" xmlns="http://www.w3.org/2000/svg" p-id="4356" xmlns:xlink="http://www.w3.org/1999/xlink" width="64.1875" height="64"><path d="M600.804345 540.626015H296.145496a159.130383 159.130383 0 0 1 94.330693-134.333969 102.957277 102.957277 0 0 1-28.407542-71.700957 93.247355 93.247355 0 1 1 186.093474 0 102.515917 102.515917 0 0 1-32.740896 75.91394 159.692114 159.692114 0 0 1 85.342996 130.120986z" fill="#00A3AF" p-id="4357"></path><path d="M640.68725 540.626015a159.090259 159.090259 0 0 0-94.330693-134.333969 102.917154 102.917154 0 0 0 28.407541-71.700957 105.444943 105.444943 0 0 0-7.382751-38.96006 79.76581 79.76581 0 0 1 83.336815 134.815452 133.050012 133.050012 0 0 1 82.895454 110.13941h-92.926366z" fill="#FF9C4A" p-id="4358"></path><path d="M344.253748 767.765979a42.651436 42.651436 0 1 0 0-85.302873H45.854188a42.651436 42.651436 0 1 0 0 85.302873H344.454367z" fill="#8C8C8C" p-id="4359"></path><path d="M984.105542 682.543353h-298.399561a42.651436 42.651436 0 0 0 0 85.302873h298.600179a42.651436 42.651436 0 0 0 0-85.302873z" fill="#8C8C8C" p-id="4360"></path><path d="M792.475005 781.327771a42.611313 42.611313 0 0 1-40.524883 29.169892h-130.441975a106.648653 106.648653 0 0 1 63.997216-191.791032h241.785095a256.069113 256.069113 0 0 0-2.567913-105.96655l-64.599072-272.840798a255.988866 255.988866 0 0 0-249.087598-196.966981h-21.546398l-36.673013-29.330386a60.867572 60.867572 0 0 0-75.91394 0l-36.713137 29.37051h-21.546398A255.948742 255.948742 0 0 0 169.515267 239.899283l-67.808963 286.482838a255.948742 255.948742 0 0 0-4.694466 92.284387h247.201787a106.648653 106.648653 0 0 1 63.997216 191.951525H277.768866a42.611313 42.611313 0 0 1-40.48476-29.169891l-4.533972-13.481545H142.913289l13.321051 40.524883a127.914186 127.914186 0 0 0 121.454279 87.509674h22.750107a229.707877 229.707877 0 0 0-39.321174 71.821327 42.651436 42.651436 0 1 0 80.969519 26.963091 144.445128 144.445128 0 0 1 137.022254-98.784418h71.339844a144.445128 144.445128 0 0 1 137.022253 98.784418 42.651436 42.651436 0 0 0 80.929395-26.963091 229.788124 229.788124 0 0 0-39.240926-71.821327h22.750107a127.954309 127.954309 0 0 0 121.414155-87.509674l13.481545-40.444636h-89.876968z m-504.273991-286.482837a84.259658 84.259658 0 0 1-53.404574-99.827633l34.506336-137.904973a170.645869 170.645869 0 0 1 165.510043-129.198142h160.133474a170.645869 170.645869 0 0 1 165.550166 129.238265l34.466212 137.86485a84.259658 84.259658 0 0 1-53.404573 99.827633 674.077264 674.077264 0 0 1-453.357084 0z" fill="#0D7B93" p-id="4361"></path></svg>